<svg xmlns="http://www.w3.org/2000/svg" width="24" height="24" viewBox="0 0 24 24" fill="#1da1f2"><circle cx="12" cy="12" r="12"/><path d="M19.633 7.997c-.543.241-1.127.405-1.74.478a3.048 3.048 0 0 0 1.338-1.684 6.086 6.086 0 0 1-1.934.739 3.042 3.042 0 0 0-5.184 2.773A8.635 8.635 0 0 1 5.15 7.15a3.042 3.042 0 0 0 .942 4.057 3.02 3.02 0 0 1-1.377-.381v.038a3.045 3.045 0 0 0 2.44 2.982 3.073 3.073 0 0 1-1.374.052 3.048 3.048 0 0 0 2.843 2.113A6.1 6.1 0 0 1 4 17.13a8.616 8.616 0 0 0 4.67 1.368c5.604 0 8.668-4.64 8.668-8.668 0-.132-.003-.263-.009-.394a6.18 6.18 0 0 0 1.513-1.575z" fill="#fff"/></svg>
